<svg width="683" height="509" viewBox="0 0 683 509" fill="none" xmlns="http://www.w3.org/2000/svg">
<g clip-path="url(#clip0_54_7)">
<path d="M236.499 415.913C233.536 413.377 230.661 410.773 227.869 408.096C188.208 370.111 165.854 318.158 165.854 262.393C165.854 230.034 173.489 198.56 188.078 170.169C191.567 163.383 195.442 156.768 199.713 150.362C201.666 147.435 202.755 144.185 203.036 140.909C203.265 138.325 207.572 84.737 175.765 48.9141C143.854 13.0132 89.8852 11.0704 87.604 11.0079C76.8956 10.7111 67.8436 18.7631 66.88 29.409C66.6769 31.685 62.229 85.5182 94.1508 121.445C110.547 139.893 132.76 149.362 150.797 154.226C146.557 162.732 142.828 171.461 139.63 180.367C133.328 172.164 125.635 164.414 116.224 158.143C76.2446 131.502 23.5416 143.331 21.3176 143.846C10.9062 146.263 4.17184 156.367 5.94788 166.909C6.32809 169.159 15.6927 222.336 55.6769 248.997C76.6196 262.955 101.052 266.351 119.885 266.351C121.807 266.351 123.661 266.315 125.453 266.252C125.578 274.335 126.073 282.351 126.974 290.273C118.942 286.278 110.13 283.106 100.599 281.429C53.2603 273.112 9.77079 305.148 7.94267 306.518C-0.614604 312.919 -2.71356 324.877 3.15101 333.809C4.40622 335.721 34.3749 380.637 81.6977 388.965C87.1144 389.913 92.4789 390.335 97.7446 390.335C119.599 390.335 139.599 383.054 153.692 376.122C155.994 380.455 158.427 384.721 160.994 388.903C159.906 388.929 158.817 388.95 157.724 389.018C109.75 391.913 74.8956 433.179 73.4373 434.934C66.604 443.148 67.3384 455.262 75.1196 462.59C76.7186 464.095 113.401 498.147 158.885 498.147C160.682 498.147 162.505 498.095 164.328 497.981C212.291 495.069 247.145 453.825 248.604 452.075C255.442 443.856 254.708 431.741 246.927 424.408C246.442 423.96 242.708 420.497 236.499 415.913ZM120.745 445.95C130.88 438.278 144.875 430.325 160.166 429.398C175.489 428.465 190.328 434.663 201.296 441.054C191.166 448.726 177.166 456.679 161.88 457.611C146.552 458.543 131.724 452.345 120.745 445.95ZM93.5987 321.278C108.708 323.929 121.708 333.408 130.89 342.169C119.255 347.283 103.781 351.773 88.6977 349.127C73.5831 346.466 60.5832 336.986 51.3905 328.216C63.0259 323.101 78.4842 318.617 93.5987 321.278ZM52.3697 181.205C65.078 181.205 81.0467 183.32 93.7862 191.81C106.557 200.32 114.646 214.226 119.531 225.945C106.823 225.945 90.8591 223.836 78.1144 215.341C65.3488 206.83 57.2603 192.929 52.3697 181.205ZM124.39 94.5807C114.192 83.1015 109.901 67.5912 108.151 55.0079C120.442 58.2266 135.333 64.3151 145.526 75.7839C155.718 87.2578 160.01 102.768 161.765 115.346C149.468 112.117 134.562 106.023 124.39 94.5807Z" fill="white"/>
<path d="M674.389 306.518C672.561 305.153 629.066 273.112 581.738 281.434C572.207 283.106 563.395 286.283 555.363 290.278C556.259 282.351 556.754 274.341 556.879 266.252C558.671 266.315 560.525 266.356 562.441 266.356C581.28 266.356 605.717 262.955 626.66 248.997C666.639 222.341 676.009 169.164 676.384 166.914C678.16 156.372 671.431 146.268 661.019 143.851C658.79 143.336 606.092 131.508 566.108 158.148C556.697 164.419 549.004 172.169 542.707 180.372C538.889 169.737 534.316 159.367 529.014 149.325C546.004 148.112 569.634 142.32 588.186 121.445C620.108 85.5182 615.655 31.685 615.452 29.409C614.493 18.7631 605.389 10.7371 594.733 11.008C592.452 11.0705 538.483 13.0132 506.561 48.9245C474.765 84.737 479.067 138.325 479.296 140.909C479.582 144.185 480.671 147.435 482.624 150.362C486.895 156.768 490.77 163.383 494.254 170.169C508.843 198.56 516.483 230.034 516.483 262.393C516.483 318.158 494.129 370.111 454.468 408.096C451.666 410.778 448.78 413.392 445.806 415.934C439.614 420.512 435.89 423.96 435.405 424.413C427.629 431.741 426.895 443.861 433.733 452.075C435.192 453.83 470.046 495.075 518.004 497.986C519.832 498.095 521.645 498.153 523.447 498.153C568.931 498.153 605.618 464.101 607.217 462.596C614.999 455.267 615.733 443.153 608.9 434.939C607.436 433.184 572.587 391.919 524.619 389.023C523.52 388.96 522.431 388.934 521.343 388.908C523.91 384.721 526.343 380.455 528.645 376.127C542.738 383.059 562.738 390.34 584.598 390.34C589.858 390.34 595.233 389.919 600.65 388.965C647.962 380.643 677.931 335.721 679.181 333.815C685.045 324.877 682.946 312.924 674.389 306.518ZM522.176 429.398C537.494 430.325 551.478 438.267 561.598 445.945C550.624 452.34 535.785 458.543 520.457 457.606C505.134 456.679 491.145 448.731 481.025 441.059C492.004 434.668 506.843 428.476 522.176 429.398ZM450.223 438.387C449.905 438.637 449.598 438.892 449.275 439.137L449.921 435.267C450.181 436.148 450.265 437.205 450.223 438.387ZM574.171 55.0079C572.415 67.6016 568.119 83.1224 557.947 94.5755C547.754 106.044 532.863 112.133 520.582 115.357C522.343 102.768 526.634 87.2422 536.801 75.7891C546.994 64.3255 561.879 58.2318 574.171 55.0079ZM588.54 191.81C601.301 183.304 617.238 181.19 629.936 181.19H629.973C625.082 192.919 616.993 206.825 604.223 215.336C591.452 223.846 575.509 225.961 562.816 225.961C562.811 225.961 562.806 225.961 562.801 225.961C567.686 214.231 575.77 200.325 588.54 191.81ZM551.447 342.189C560.645 333.413 573.655 323.924 588.738 321.273C603.848 318.617 619.301 323.096 630.931 328.21C621.733 336.976 608.728 346.471 593.65 349.122C578.53 351.773 563.072 347.294 551.447 342.189Z" fill="white"/>
</g>
<defs>
<clipPath id="clip0_54_7">
<rect width="683" height="509" fill="white"/>
</clipPath>
</defs>
</svg>
